<?xml version="1.0" encoding="UTF-8"?>
<svg xmlns="http://www.w3.org/2000/svg" viewBox="0 0 100 100" fill="none" stroke="#000" stroke-width="2.5" stroke-linecap="round" stroke-linejoin="round">
  <!-- Head -->
  <circle cx="50" cy="42" r="22" fill="#fff" />
  <!-- Face / muzzle -->
  <ellipse cx="50" cy="50" rx="13" ry="10" fill="#fff" />
  <!-- Left ear outer -->
  <circle cx="28" cy="28" r="10" fill="#fff" />
  <!-- Left ear inner -->
  <circle cx="28" cy="28" r="5" fill="#000" />
  <!-- Right ear outer -->
  <circle cx="72" cy="28" r="10" fill="#fff" />
  <!-- Right ear inner -->
  <circle cx="72" cy="28" r="5" fill="#000" />
  <!-- Left eye -->
  <circle cx="41" cy="40" r="2.5" fill="#000" stroke="none" />
  <!-- Right eye -->
  <circle cx="59" cy="40" r="2.5" fill="#000" stroke="none" />
  <!-- Nose -->
  <ellipse cx="50" cy="48" rx="3" ry="2" fill="#000" stroke="none" />
  <!-- Mouth -->
  <path d="M46 52 Q50 56 54 52" fill="none" />
  <!-- Body -->
  <path d="M38 62 Q50 80 62 62" fill="#fff" />
  <!-- Left arm -->
  <path d="M36 65 Q28 75 32 82" fill="none" />
  <!-- Right arm -->
  <path d="M64 65 Q72 75 68 82" fill="none" />
  <!-- Tail -->
  <path d="M55 75 Q70 70 75 58 Q78 52 72 50" fill="none" />
</svg>
